Full Credits to (Pitic):

 ######## ######## ######## ##          ######## ########  ######## ######
 ##       ##       ##       ##          ##       ##     ## ##       ##       
 ##       ##       ##       ##          ##       ##     ## ##       ##       
 ######   ######   ######   ##          ######   ########  ######   ######   
 ##       ##       ##       ##          ##       ##   ##   ##       ##       
 ##       ##       ##       ##          ##       ##    ##  ##       ##       
 ##       ######## ######## ########    ##       ##     ## ######## ######	

Genre:Comedy 
 Language:English
 IMDb: 
http://www.imdb.com/title/tt1320334/
 Source:DVD Thanks!

 Format : AVI
 Format/Info : Audio Video Interleave
 File size : 942 MiB
 Duration : 1h 23mn
 Overall bit rate : 1 573 Kbps

 Video
 ID : 0
 Format : MPEG-4 Visual
 Format profile : Advanced Simple@L5
 Format settings, BVOP : Yes
 Format settings, QPel : No
 Format settings, GMC : No warppoints
 Format settings, Matrix : Default (H.263)
 Codec ID : XVID
 Codec ID/Hint : XviD
 Duration : 1h 23mn
 Bit rate : 1 116 Kbps
 Width : 640 pixels
 Height : 344 pixels
 Display aspect ratio : 1.860
 Frame rate : 23.976 fps
 Color space : YUV
 Chroma subsampling : 4:2:0
 Bit depth : 8 bits
 Scan type : Progressive
 Bits/(Pixel*Frame) : 0.211
 Stream size : 668 MiB (71%)
 Writing library : XviD 1.2.1 (UTC 2008-12-04)

 Audio
 ID : 1
 Format : AC-3
 Format/Info : Audio Coding 3
 Mode extension : CM (complete main)
 Codec ID : 2000
 Duration : 1h 23mn
 Bit rate mode : Constant
 Bit rate : 448 Kbps
 Channel(s) : 6 channels
 Channel positions : Front: L C R, Side: L R, LFE
 Sampling rate : 48.0 KHz
 Bit depth : 16 bits
 Stream size : 268 MiB (28%)
 Alignment : Aligned on interleaves
 Interleave, duration : 42 ms (1.00 video frame)
 Interleave, preload duration : 512 ms

 Plot:
 Gypsy Creek's # 1 cop, Charles Gravytrain believes in three things: Truth, Justice, and slapping the no good crook Jimmy Fish Eye's in the slammer for life..


Greets:

 INK,CRYS,IMAGINE,LKRG,FXG,3Li,FLAWL3SS,TA,iLLUSiON,ViSiON,DTRG SAFCuk009,LU,TheFalcon007,MYSTiC,PrisM,Noir,WBZ,LAP,Rx,Kingdom,SAFCuk009+Fabreezy,HDLiTE,TWiZTED,ExtraTorrentRG.ELEKTRI4KA,MAGNAT,CM8
 And to all the other p2p grps past and present




 ==================================
  http://thepiratebay.org/user/hiest
 ==================================




Screenshots:
  
http://www.pix2links.com/images/12665948523530943830.png
 
http://www.pix2links.com/images/31212564391755246288.png
 
http://www.pix2links.com/images/54072444852899636232.png
 
http://www.pix2links.com/images/41570416767097780423.png
 
http://www.pix2links.com/images/22004509421610894367.png
 
http://www.pix2links.com/images/82634585369820426154.png



Full Credits to (Pitic):

 ######## ######## ######## ##          ######## ########  ######## ######
 ##       ##       ##       ##          ##       ##     ## ##       ##       
 ##       ##       ##       ##          ##       ##     ## ##       ##       
 ######   ######   ######   ##          ######   ########  ######   ######   
 ##       ##       ##       ##          ##       ##   ##   ##       ##       
 ##       ##       ##       ##          ##       ##    ##  ##       ##       
 ##       ######## ######## ########    ##       ##     ## ######## ######	